<?xml version="1.0" standalone="no"?>
<!DOCTYPE svg PUBLIC "-//W3C//DTD SVG 20010904//EN"
 "http://www.w3.org/TR/2001/REC-SVG-20010904/DTD/svg10.dtd">
<svg version="1.0" xmlns="http://www.w3.org/2000/svg"
 width="434.000000pt" height="434.000000pt" viewBox="0 0 434.000000 434.000000"
 preserveAspectRatio="xMidYMid meet">

<g transform="translate(0.000000,434.000000) scale(0.100000,-0.100000)"
fill="#000000" stroke="none">
<path d="M1345 3333 c-44 -31 -128 -104 -186 -162 -199 -201 -325 -437 -386
-721 -25 -120 -26 -449 0 -567 28 -129 63 -229 127 -358 292 -589 970 -900
1611 -740 244 61 460 181 646 358 287 275 433 624 433 1037 0 178 -17 282 -71
446 -72 216 -181 388 -353 559 -84 82 -239 205 -260 205 -2 0 -6 -298 -8 -662
-4 -655 -4 -664 -27 -738 -61 -203 -195 -367 -371 -453 -127 -62 -201 -80
-330 -80 -128 0 -203 18 -326 78 -185 90 -326 265 -381 470 -14 52 -17 154
-20 723 -3 364 -7 662 -11 662 -4 0 -43 -26 -87 -57z"/>
</g>
</svg>
