<?xml version="1.0" standalone="no"?>
<!DOCTYPE svg PUBLIC "-//W3C//DTD SVG 20010904//EN"
 "http://www.w3.org/TR/2001/REC-SVG-20010904/DTD/svg10.dtd">
<svg version="1.0" xmlns="http://www.w3.org/2000/svg"
 width="937.000000pt" height="338.000000pt" viewBox="0 0 937.000000 338.000000"
 preserveAspectRatio="xMidYMid meet">

<g transform="translate(0.000000,338.000000) scale(0.100000,-0.100000)"
fill="#000000" stroke="none">
<path d="M610 2596 c-291 -206 -498 -525 -576 -886 -24 -108 -27 -436 -5 -545
19 -100 83 -289 124 -370 132 -262 357 -493 607 -624 121 -63 206 -95 334
-126 476 -116 965 16 1319 355 266 254 408 559 437 933 30 399 -108 785 -387
1078 -79 83 -271 239 -293 239 -6 0 -10 -232 -10 -621 0 -406 -4 -645 -11
-692 -46 -299 -275 -545 -564 -608 -84 -18 -246 -16 -325 4 -206 53 -392 204
-481 392 -71 148 -69 125 -69 862 0 524 -3 663 -12 663 -7 0 -47 -25 -88 -54z"/>
<path d="M4085 2574 c-211 -47 -375 -167 -458 -336 -60 -121 -80 -228 -74
-393 5 -161 29 -254 94 -364 53 -89 164 -191 255 -235 207 -99 493 -107 709
-20 268 109 414 367 396 702 -7 131 -25 201 -79 311 -76 156 -226 275 -413
326 -87 24 -338 29 -430 9z m345 -96 c152 -70 247 -241 270 -488 25 -260 -32
-494 -152 -625 -70 -77 -140 -108 -252 -113 -120 -5 -183 17 -266 95 -137 126
-203 383 -171 663 31 264 137 428 314 486 66 22 190 13 257 -18z"/>
<path d="M5116 2561 c-5 -7 1 -11 14 -11 44 0 89 -31 110 -75 20 -42 21 -53
18 -611 -3 -540 -4 -570 -22 -597 -22 -33 -65 -57 -101 -57 -14 0 -25 -4 -25
-10 0 -6 102 -10 285 -10 183 0 285 4 285 10 0 6 -11 10 -25 10 -15 0 -39 7
-55 15 -61 32 -60 17 -60 665 l0 590 81 0 c104 0 154 -15 200 -61 50 -50 73
-122 73 -229 1 -111 -23 -179 -84 -241 -48 -48 -102 -69 -174 -69 -39 0 -48
-15 -17 -25 44 -14 81 -72 172 -273 86 -191 98 -212 153 -268 70 -70 134 -99
255 -115 47 -6 279 -9 601 -7 504 4 528 5 605 26 240 66 400 221 461 447 22
81 29 266 14 351 -55 322 -265 508 -611 544 -122 12 -756 14 -763 1 -3 -5 12
-11 33 -15 51 -8 88 -39 101 -84 8 -25 10 -218 8 -602 l-3 -565 -22 -31 c-31
-44 -71 -58 -145 -51 -108 10 -176 78 -339 340 -64 103 -110 164 -151 202 -33
30 -63 55 -69 55 -26 0 -3 17 37 28 142 38 234 181 234 363 0 179 -91 292
-277 346 -48 13 -122 17 -424 21 -257 2 -369 0 -373 -7z m2205 -113 c144 -71
231 -220 260 -444 38 -308 -58 -586 -238 -682 -72 -38 -153 -52 -300 -52
l-113 0 0 606 0 606 168 -4 c158 -3 170 -4 223 -30z"/>
<path d="M7970 2560 c0 -5 9 -10 20 -10 34 0 79 -28 95 -60 13 -25 15 -95 15
-462 0 -357 3 -444 15 -493 62 -237 260 -365 570 -368 243 -2 410 84 494 255
56 114 61 158 61 630 l0 426 26 31 c18 21 38 33 65 37 89 15 27 24 -156 24
-182 0 -245 -9 -157 -24 22 -3 48 -16 63 -32 l24 -26 3 -416 c3 -455 -2 -521
-47 -617 -39 -84 -82 -129 -159 -167 -61 -30 -74 -33 -162 -33 -78 0 -104 4
-147 24 -58 26 -130 97 -162 159 -48 95 -51 127 -51 605 l0 448 24 24 c13 13
40 27 60 30 89 17 17 25 -229 25 -170 0 -265 -4 -265 -10z"/>
</g>
</svg>
